# xmcd
#
# Track frame offsets:
#	150
#	15443
#	31816
#	41679
#	60759
#	73652
#	84137
#	91952
#	109255
#	127645
#	147970
#	162123
#	174566
#	197366
#	220721
#	234206
#	259759
#
# Disc length: 3682 seconds
# Revision: 0
# Processed by: cddbd v1.5.2PL0 Copyright (c) Steve Scherf et al.
# Submitted via: dBpowerAMP V12.0
#
DISCID=c70e6011
DTITLE=Barrelhouse Chuck - 25 Years of Chicago Blues Piano
DYEAR=2000
DGENRE=Blues
TTITLE0=Salute to Sunnyland Slim
TTITLE1=Mama Told Me
TTITLE2=Baby It's Cold Outside
TTITLE3=Blues for Pinetop Perkins
TTITLE4=House Cat Blues
TTITLE5=I'll Be Your King
TTITLE6=Leroy Carr's Hop
TTITLE7=Get Your Money
TTITLE8=Any Old Lonesome Day
TTITLE9=Hangin' 'Round the House
TTITLE10=My Past Life
TTITLE11=Shake It Baby
TTITLE12=Wah-Wah Blues
TTITLE13=Man or Mouse
TTITLE14=Walkin' the Ceiling
TTITLE15=Farewell to S.P. Leary
TTITLE16=On the House
EXTD=
EXTT0=
EXTT1=
EXTT2=
EXTT3=
EXTT4=
EXTT5=
EXTT6=
EXTT7=
EXTT8=
EXTT9=
EXTT10=
EXTT11=
EXTT12=
EXTT13=
EXTT14=
EXTT15=
EXTT16=
PLAYORDER=
